<svg xmlns:xlink="http://www.w3.org/1999/xlink" version="1.1" class="highcharts-root" style="font-family:&quot;Lucida Grande&quot;, &quot;Lucida Sans Unicode&quot;, Arial, Helvetica, sans-serif;font-size:12px;" xmlns="http://www.w3.org/2000/svg" width="1920" height="1080" viewBox="0 0 1920 1080"><desc>Created with Highcharts 7.1.3</desc><defs><clipPath id="highcharts-fhudr6p-1848-"><rect x="0" y="0" width="1836" height="933" fill="none"></rect></clipPath></defs><rect fill="#ffffff" class="highcharts-background" x="0" y="0" width="1920" height="1080" rx="0" ry="0"></rect><rect fill="none" class="highcharts-plot-background" x="74" y="46" width="1836" height="933"></rect><g class="highcharts-pane-group" data-z-index="0"></g><g class="highcharts-grid highcharts-xaxis-grid" data-z-index="1"><path fill="none" stroke-dasharray="none" data-z-index="1" class="highcharts-grid-line" d="M 106.5 46 L 106.5 979" opacity="1"></path><path fill="none" stroke-dasharray="none" data-z-index="1" class="highcharts-grid-line" d="M 181.5 46 L 181.5 979" opacity="1"></path><path fill="none" stroke-dasharray="none" data-z-index="1" class="highcharts-grid-line" d="M 256.5 46 L 256.5 979" opacity="1"></path><path fill="none" stroke-dasharray="none" data-z-index="1" class="highcharts-grid-line" d="M 331.5 46 L 331.5 979" opacity="1"></path><path fill="none" stroke-dasharray="none" data-z-index="1" class="highcharts-grid-line" d="M 406.5 46 L 406.5 979" opacity="1"></path><path fill="none" stroke-dasharray="none" data-z-index="1" class="highcharts-grid-line" d="M 481.5 46 L 481.5 979" opacity="1"></path><path fill="none" stroke-dasharray="none" data-z-index="1" class="highcharts-grid-line" d="M 556.5 46 L 556.5 979" opacity="1"></path><path fill="none" stroke-dasharray="none" data-z-index="1" class="highcharts-grid-line" d="M 631.5 46 L 631.5 979" opacity="1"></path><path fill="none" stroke-dasharray="none" data-z-index="1" class="highcharts-grid-line" d="M 706.5 46 L 706.5 979" opacity="1"></path><path fill="none" stroke-dasharray="none" data-z-index="1" class="highcharts-grid-line" d="M 781.5 46 L 781.5 979" opacity="1"></path><path fill="none" stroke-dasharray="none" data-z-index="1" class="highcharts-grid-line" d="M 856.5 46 L 856.5 979" opacity="1"></path><path fill="none" stroke-dasharray="none" data-z-index="1" class="highcharts-grid-line" d="M 931.5 46 L 931.5 979" opacity="1"></path><path fill="none" stroke-dasharray="none" data-z-index="1" class="highcharts-grid-line" d="M 1006.5 46 L 1006.5 979" opacity="1"></path><path fill="none" stroke-dasharray="none" data-z-index="1" class="highcharts-grid-line" d="M 1081.5 46 L 1081.5 979" opacity="1"></path><path fill="none" stroke-dasharray="none" data-z-index="1" class="highcharts-grid-line" d="M 1156.5 46 L 1156.5 979" opacity="1"></path><path fill="none" stroke-dasharray="none" data-z-index="1" class="highcharts-grid-line" d="M 1231.5 46 L 1231.5 979" opacity="1"></path><path fill="none" stroke-dasharray="none" data-z-index="1" class="highcharts-grid-line" d="M 1306.5 46 L 1306.5 979" opacity="1"></path><path fill="none" stroke-dasharray="none" data-z-index="1" class="highcharts-grid-line" d="M 1381.5 46 L 1381.5 979" opacity="1"></path><path fill="none" stroke-dasharray="none" data-z-index="1" class="highcharts-grid-line" d="M 1456.5 46 L 1456.5 979" opacity="1"></path><path fill="none" stroke-dasharray="none" data-z-index="1" class="highcharts-grid-line" d="M 1531.5 46 L 1531.5 979" opacity="1"></path><path fill="none" stroke-dasharray="none" data-z-index="1" class="highcharts-grid-line" d="M 1606.5 46 L 1606.5 979" opacity="1"></path><path fill="none" stroke-dasharray="none" data-z-index="1" class="highcharts-grid-line" d="M 1681.5 46 L 1681.5 979" opacity="1"></path><path fill="none" stroke-dasharray="none" data-z-index="1" class="highcharts-grid-line" d="M 1756.5 46 L 1756.5 979" opacity="1"></path><path fill="none" stroke-dasharray="none" data-z-index="1" class="highcharts-grid-line" d="M 1831.5 46 L 1831.5 979" opacity="1"></path><path fill="none" stroke-dasharray="none" data-z-index="1" class="highcharts-grid-line" d="M 1906.5 46 L 1906.5 979" opacity="1"></path></g><g class="highcharts-grid highcharts-yaxis-grid" data-z-index="1"><path fill="none" stroke="#e6e6e6" stroke-width="1" stroke-dasharray="none" data-z-index="1" class="highcharts-grid-line" d="M 74 979.5 L 1910 979.5" opacity="1"></path><path fill="none" stroke="#e6e6e6" stroke-width="1" stroke-dasharray="none" data-z-index="1" class="highcharts-grid-line" d="M 74 917.5 L 1910 917.5" opacity="1"></path><path fill="none" stroke="#e6e6e6" stroke-width="1" stroke-dasharray="none" data-z-index="1" class="highcharts-grid-line" d="M 74 855.5 L 1910 855.5" opacity="1"></path><path fill="none" stroke="#e6e6e6" stroke-width="1" stroke-dasharray="none" data-z-index="1" class="highcharts-grid-line" d="M 74 792.5 L 1910 792.5" opacity="1"></path><path fill="none" stroke="#e6e6e6" stroke-width="1" stroke-dasharray="none" data-z-index="1" class="highcharts-grid-line" d="M 74 730.5 L 1910 730.5" opacity="1"></path><path fill="none" stroke="#e6e6e6" stroke-width="1" stroke-dasharray="none" data-z-index="1" class="highcharts-grid-line" d="M 74 668.5 L 1910 668.5" opacity="1"></path><path fill="none" stroke="#e6e6e6" stroke-width="1" stroke-dasharray="none" data-z-index="1" class="highcharts-grid-line" d="M 74 606.5 L 1910 606.5" opacity="1"></path><path fill="none" stroke="#e6e6e6" stroke-width="1" stroke-dasharray="none" data-z-index="1" class="highcharts-grid-line" d="M 74 544.5 L 1910 544.5" opacity="1"></path><path fill="none" stroke="#e6e6e6" stroke-width="1" stroke-dasharray="none" data-z-index="1" class="highcharts-grid-line" d="M 74 481.5 L 1910 481.5" opacity="1"></path><path fill="none" stroke="#e6e6e6" stroke-width="1" stroke-dasharray="none" data-z-index="1" class="highcharts-grid-line" d="M 74 419.5 L 1910 419.5" opacity="1"></path><path fill="none" stroke="#e6e6e6" stroke-width="1" stroke-dasharray="none" data-z-index="1" class="highcharts-grid-line" d="M 74 357.5 L 1910 357.5" opacity="1"></path><path fill="none" stroke="#e6e6e6" stroke-width="1" stroke-dasharray="none" data-z-index="1" class="highcharts-grid-line" d="M 74 295.5 L 1910 295.5" opacity="1"></path><path fill="none" stroke="#e6e6e6" stroke-width="1" stroke-dasharray="none" data-z-index="1" class="highcharts-grid-line" d="M 74 233.5 L 1910 233.5" opacity="1"></path><path fill="none" stroke="#e6e6e6" stroke-width="1" stroke-dasharray="none" data-z-index="1" class="highcharts-grid-line" d="M 74 170.5 L 1910 170.5" opacity="1"></path><path fill="none" stroke="#e6e6e6" stroke-width="1" stroke-dasharray="none" data-z-index="1" class="highcharts-grid-line" d="M 74 108.5 L 1910 108.5" opacity="1"></path><path fill="none" stroke="#e6e6e6" stroke-width="1" stroke-dasharray="none" data-z-index="1" class="highcharts-grid-line" d="M 74 45.5 L 1910 45.5" opacity="1"></path></g><rect fill="none" class="highcharts-plot-border" data-z-index="1" x="74" y="46" width="1836" height="933"></rect><g class="highcharts-axis highcharts-xaxis" data-z-index="2"><path fill="none" class="highcharts-tick" stroke="#ccd6eb" stroke-width="1" d="M 106.5 979 L 106.5 989" opacity="1"></path><path fill="none" class="highcharts-tick" stroke="#ccd6eb" stroke-width="1" d="M 181.5 979 L 181.5 989" opacity="1"></path><path fill="none" class="highcharts-tick" stroke="#ccd6eb" stroke-width="1" d="M 256.5 979 L 256.5 989" opacity="1"></path><path fill="none" class="highcharts-tick" stroke="#ccd6eb" stroke-width="1" d="M 331.5 979 L 331.5 989" opacity="1"></path><path fill="none" class="highcharts-tick" stroke="#ccd6eb" stroke-width="1" d="M 406.5 979 L 406.5 989" opacity="1"></path><path fill="none" class="highcharts-tick" stroke="#ccd6eb" stroke-width="1" d="M 481.5 979 L 481.5 989" opacity="1"></path><path fill="none" class="highcharts-tick" stroke="#ccd6eb" stroke-width="1" d="M 556.5 979 L 556.5 989" opacity="1"></path><path fill="none" class="highcharts-tick" stroke="#ccd6eb" stroke-width="1" d="M 631.5 979 L 631.5 989" opacity="1"></path><path fill="none" class="highcharts-tick" stroke="#ccd6eb" stroke-width="1" d="M 706.5 979 L 706.5 989" opacity="1"></path><path fill="none" class="highcharts-tick" stroke="#ccd6eb" stroke-width="1" d="M 781.5 979 L 781.5 989" opacity="1"></path><path fill="none" class="highcharts-tick" stroke="#ccd6eb" stroke-width="1" d="M 856.5 979 L 856.5 989" opacity="1"></path><path fill="none" class="highcharts-tick" stroke="#ccd6eb" stroke-width="1" d="M 931.5 979 L 931.5 989" opacity="1"></path><path fill="none" class="highcharts-tick" stroke="#ccd6eb" stroke-width="1" d="M 1006.5 979 L 1006.5 989" opacity="1"></path><path fill="none" class="highcharts-tick" stroke="#ccd6eb" stroke-width="1" d="M 1081.5 979 L 1081.5 989" opacity="1"></path><path fill="none" class="highcharts-tick" stroke="#ccd6eb" stroke-width="1" d="M 1156.5 979 L 1156.5 989" opacity="1"></path><path fill="none" class="highcharts-tick" stroke="#ccd6eb" stroke-width="1" d="M 1231.5 979 L 1231.5 989" opacity="1"></path><path fill="none" class="highcharts-tick" stroke="#ccd6eb" stroke-width="1" d="M 1306.5 979 L 1306.5 989" opacity="1"></path><path fill="none" class="highcharts-tick" stroke="#ccd6eb" stroke-width="1" d="M 1381.5 979 L 1381.5 989" opacity="1"></path><path fill="none" class="highcharts-tick" stroke="#ccd6eb" stroke-width="1" d="M 1456.5 979 L 1456.5 989" opacity="1"></path><path fill="none" class="highcharts-tick" stroke="#ccd6eb" stroke-width="1" d="M 1531.5 979 L 1531.5 989" opacity="1"></path><path fill="none" class="highcharts-tick" stroke="#ccd6eb" stroke-width="1" d="M 1606.5 979 L 1606.5 989" opacity="1"></path><path fill="none" class="highcharts-tick" stroke="#ccd6eb" stroke-width="1" d="M 1681.5 979 L 1681.5 989" opacity="1"></path><path fill="none" class="highcharts-tick" stroke="#ccd6eb" stroke-width="1" d="M 1756.5 979 L 1756.5 989" opacity="1"></path><path fill="none" class="highcharts-tick" stroke="#ccd6eb" stroke-width="1" d="M 1831.5 979 L 1831.5 989" opacity="1"></path><path fill="none" class="highcharts-tick" stroke="#ccd6eb" stroke-width="1" d="M 1906.5 979 L 1906.5 989" opacity="1"></path><text x="992" data-z-index="7" text-anchor="middle" transform="translate(0,0)" class="highcharts-axis-title" style="color:#666666;font-weight:normal;fill:#666666;" y="1018"><tspan>Horsepower</tspan></text><path fill="none" class="highcharts-axis-line" stroke="#ccd6eb" stroke-width="1" data-z-index="7" d="M 74 979.5 L 1910 979.5"></path></g><g class="highcharts-axis highcharts-yaxis" data-z-index="2"><text x="26.0888671875" data-z-index="7" text-anchor="middle" transform="translate(0,0) rotate(270 26.0888671875 512.5)" class="highcharts-axis-title" style="color:#666666;font-weight:normal;fill:#666666;" y="512.5"><tspan>Engine-size</tspan></text><path fill="none" class="highcharts-axis-line" data-z-index="7" d="M 74 46 L 74 979"></path></g><g class="highcharts-series-group" data-z-index="3"><g data-z-index="0.1" class="highcharts-series highcharts-series-0 highcharts-scatter-series " transform="translate(74,46) scale(1 1)" clip-path="url(#highcharts-fhudr6p-1848-)"></g><g data-z-index="0.1" class="highcharts-markers highcharts-series-0 highcharts-scatter-series " transform="translate(74,46) scale(1 1)" clip-path="none"><path fill="#7cb5ec" d="M 18 872 A 4 4 0 1 1 18.003999999333335 871.9999980000001 Z" opacity="1" class="highcharts-point"></path><path fill="#7cb5ec" d="M 48 760 A 4 4 0 1 1 48.00399999933334 759.9999980000001 Z" opacity="1" class="highcharts-point"></path><path fill="#7cb5ec" d="M 48 760 A 4 4 0 1 1 48.00399999933334 759.9999980000001 Z" opacity="1" class="highcharts-point"></path><path fill="#7cb5ec" d="M 70 741 A 4 4 0 1 1 70.00399999933333 740.9999980000001 Z" opacity="1" class="highcharts-point"></path><path fill="#7cb5ec" d="M 78 719 A 4 4 0 1 1 78.00399999933333 718.9999980000001 Z" opacity="1" class="highcharts-point"></path><path fill="#7cb5ec" d="M 78 719 A 4 4 0 1 1 78.00399999933333 718.9999980000001 Z" opacity="1" class="highcharts-point"></path><path fill="#7cb5ec" d="M 93 775 A 4 4 0 1 1 93.00399999933333 774.9999980000001 Z" opacity="1" class="highcharts-point"></path><path fill="#7cb5ec" d="M 108 816 A 4 4 0 1 1 108.00399999933333 815.9999980000001 Z" opacity="1" class="highcharts-point"></path><path fill="#7cb5ec" d="M 123 775 A 4 4 0 1 1 123.00399999933333 774.9999980000001 Z" opacity="1" class="highcharts-point"></path><path fill="#7cb5ec" d="M 123 775 A 4 4 0 1 1 123.00399999933333 774.9999980000001 Z" opacity="1" class="highcharts-point"></path><path fill="#7cb5ec" d="M 123 775 A 4 4 0 1 1 123.00399999933333 774.9999980000001 Z" opacity="1" class="highcharts-point"></path><path fill="#7cb5ec" d="M 123 775 A 4 4 0 1 1 123.00399999933333 774.9999980000001 Z" opacity="1" class="highcharts-point"></path><path fill="#7cb5ec" d="M 123 775 A 4 4 0 1 1 123.00399999933333 774.9999980000001 Z" opacity="1" class="highcharts-point"></path><path fill="#7cb5ec" d="M 123 775 A 4 4 0 1 1 123.00399999933333 774.9999980000001 Z" opacity="1" class="highcharts-point"></path><path fill="#7cb5ec" d="M 138 682 A 4 4 0 1 1 138.00399999933333 681.9999980000001 Z" opacity="1" class="highcharts-point"></path><path fill="#7cb5ec" d="M 168 778 A 4 4 0 1 1 168.00399999933333 777.9999980000001 Z" opacity="1" class="highcharts-point"></path><path fill="#7cb5ec" d="M 168 775 A 4 4 0 1 1 168.00399999933333 774.9999980000001 Z" opacity="1" class="highcharts-point"></path><path fill="#7cb5ec" d="M 168 782 A 4 4 0 1 1 168.00399999933333 781.9999980000001 Z" opacity="1" class="highcharts-point"></path><path fill="#7cb5ec" d="M 168 782 A 4 4 0 1 1 168.00399999933333 781.9999980000001 Z" opacity="1" class="highcharts-point"></path><path fill="#7cb5ec" d="M 168 782 A 4 4 0 1 1 168.00399999933333 781.9999980000001 Z" opacity="1" class="highcharts-point"></path><path fill="#7cb5ec" d="M 168 757 A 4 4 0 1 1 168.00399999933333 756.9999980000001 Z" opacity="1" class="highcharts-point"></path><path fill="#7cb5ec" d="M 168 778 A 4 4 0 1 1 168.00399999933333 777.9999980000001 Z" opacity="1" class="highcharts-point"></path><path fill="#7cb5ec" d="M 168 782 A 4 4 0 1 1 168.00399999933333 781.9999980000001 Z" opacity="1" class="highcharts-point"></path><path fill="#7cb5ec" d="M 168 782 A 4 4 0 1 1 168.00399999933333 781.9999980000001 Z" opacity="1" class="highcharts-point"></path><path fill="#7cb5ec" d="M 168 782 A 4 4 0 1 1 168.00399999933333 781.9999980000001 Z" opacity="1" class="highcharts-point"></path><path fill="#7cb5ec" d="M 168 782 A 4 4 0 1 1 168.00399999933333 781.9999980000001 Z" opacity="1" class="highcharts-point"></path><path fill="#7cb5ec" d="M 168 778 A 4 4 0 1 1 168.00399999933333 777.9999980000001 Z" opacity="1" class="highcharts-point"></path><path fill="#7cb5ec" d="M 168 775 A 4 4 0 1 1 168.00399999933333 774.9999980000001 Z" opacity="1" class="highcharts-point"></path><path fill="#7cb5ec" d="M 168 778 A 4 4 0 1 1 168.00399999933333 777.9999980000001 Z" opacity="1" class="highcharts-point"></path><path fill="#7cb5ec" d="M 168 760 A 4 4 0 1 1 168.00399999933333 759.9999980000001 Z" opacity="1" class="highcharts-point"></path><path fill="#7cb5ec" d="M 168 760 A 4 4 0 1 1 168.00399999933333 759.9999980000001 Z" opacity="1" class="highcharts-point"></path><path fill="#7cb5ec" d="M 168 778 A 4 4 0 1 1 168.00399999933333 777.9999980000001 Z" opacity="1" class="highcharts-point"></path><path fill="#7cb5ec" d="M 168 782 A 4 4 0 1 1 168.00399999933333 781.9999980000001 Z" opacity="1" class="highcharts-point"></path><path fill="#7cb5ec" d="M 168 775 A 4 4 0 1 1 168.00399999933333 774.9999980000001 Z" opacity="1" class="highcharts-point"></path><path fill="#7cb5ec" d="M 175 760 A 4 4 0 1 1 175.00399999933333 759.9999980000001 Z" opacity="1" class="highcharts-point"></path><path fill="#7cb5ec" d="M 175 760 A 4 4 0 1 1 175.00399999933333 759.9999980000001 Z" opacity="1" class="highcharts-point"></path><path fill="#7cb5ec" d="M 175 760 A 4 4 0 1 1 175.00399999933333 759.9999980000001 Z" opacity="1" class="highcharts-point"></path><path fill="#7cb5ec" d="M 175 760 A 4 4 0 1 1 175.00399999933333 759.9999980000001 Z" opacity="1" class="highcharts-point"></path><path fill="#7cb5ec" d="M 175 760 A 4 4 0 1 1 175.00399999933333 759.9999980000001 Z" opacity="1" class="highcharts-point"></path><path fill="#7cb5ec" d="M 175 760 A 4 4 0 1 1 175.00399999933333 759.9999980000001 Z" opacity="1" class="highcharts-point"></path><path fill="#7cb5ec" d="M 175 760 A 4 4 0 1 1 175.00399999933333 759.9999980000001 Z" opacity="1" class="highcharts-point"></path><path fill="#7cb5ec" d="M 175 760 A 4 4 0 1 1 175.00399999933333 759.9999980000001 Z" opacity="1" class="highcharts-point"></path><path fill="#7cb5ec" d="M 175 760 A 4 4 0 1 1 175.00399999933333 759.9999980000001 Z" opacity="1" class="highcharts-point"></path><path fill="#7cb5ec" d="M 175 760 A 4 4 0 1 1 175.00399999933333 759.9999980000001 Z" opacity="1" class="highcharts-point"></path><path fill="#7cb5ec" d="M 183 757 A 4 4 0 1 1 183.00399999933333 756.9999980000001 Z" opacity="1" class="highcharts-point"></path><path fill="#7cb5ec" d="M 183 782 A 4 4 0 1 1 183.00399999933333 781.9999980000001 Z" opacity="1" class="highcharts-point"></path><path fill="#7cb5ec" d="M 183 782 A 4 4 0 1 1 183.00399999933333 781.9999980000001 Z" opacity="1" class="highcharts-point"></path><path fill="#7cb5ec" d="M 183 757 A 4 4 0 1 1 183.00399999933333 756.9999980000001 Z" opacity="1" class="highcharts-point"></path><path fill="#7cb5ec" d="M 183 782 A 4 4 0 1 1 183.00399999933333 781.9999980000001 Z" opacity="1" class="highcharts-point"></path><path fill="#7cb5ec" d="M 183 757 A 4 4 0 1 1 183.00399999933333 756.9999980000001 Z" opacity="1" class="highcharts-point"></path><path fill="#7cb5ec" d="M 183 757 A 4 4 0 1 1 183.00399999933333 756.9999980000001 Z" opacity="1" class="highcharts-point"></path><path fill="#7cb5ec" d="M 183 782 A 4 4 0 1 1 183.00399999933333 781.9999980000001 Z" opacity="1" class="highcharts-point"></path><path fill="#7cb5ec" d="M 183 757 A 4 4 0 1 1 183.00399999933333 756.9999980000001 Z" opacity="1" class="highcharts-point"></path><path fill="#7cb5ec" d="M 183 757 A 4 4 0 1 1 183.00399999933333 756.9999980000001 Z" opacity="1" class="highcharts-point"></path><path fill="#7cb5ec" d="M 183 757 A 4 4 0 1 1 183.00399999933333 756.9999980000001 Z" opacity="1" class="highcharts-point"></path><path fill="#7cb5ec" d="M 198 645 A 4 4 0 1 1 198.00399999933333 644.9999980000001 Z" opacity="1" class="highcharts-point"></path><path fill="#7cb5ec" d="M 205 726 A 4 4 0 1 1 205.00399999933333 725.9999980000001 Z" opacity="1" class="highcharts-point"></path><path fill="#7cb5ec" d="M 205 719 A 4 4 0 1 1 205.00399999933333 718.9999980000001 Z" opacity="1" class="highcharts-point"></path><path fill="#7cb5ec" d="M 205 726 A 4 4 0 1 1 205.00399999933333 725.9999980000001 Z" opacity="1" class="highcharts-point"></path><path fill="#7cb5ec" d="M 228 775 A 4 4 0 1 1 228.00399999933333 774.9999980000001 Z" opacity="1" class="highcharts-point"></path><path fill="#7cb5ec" d="M 228 775 A 4 4 0 1 1 228.00399999933333 774.9999980000001 Z" opacity="1" class="highcharts-point"></path><path fill="#7cb5ec" d="M 228 775 A 4 4 0 1 1 228.00399999933333 774.9999980000001 Z" opacity="1" class="highcharts-point"></path><path fill="#7cb5ec" d="M 228 775 A 4 4 0 1 1 228.00399999933333 774.9999980000001 Z" opacity="1" class="highcharts-point"></path><path fill="#7cb5ec" d="M 228 775 A 4 4 0 1 1 228.00399999933333 774.9999980000001 Z" opacity="1" class="highcharts-point"></path><path fill="#7cb5ec" d="M 243 716 A 4 4 0 1 1 243.00399999933333 715.9999980000001 Z" opacity="1" class="highcharts-point"></path><path fill="#7cb5ec" d="M 273 726 A 4 4 0 1 1 273.00399999933336 725.9999980000001 Z" opacity="1" class="highcharts-point"></path><path fill="#7cb5ec" d="M 273 726 A 4 4 0 1 1 273.00399999933336 725.9999980000001 Z" opacity="1" class="highcharts-point"></path><path fill="#7cb5ec" d="M 273 726 A 4 4 0 1 1 273.00399999933336 725.9999980000001 Z" opacity="1" class="highcharts-point"></path><path fill="#7cb5ec" d="M 273 726 A 4 4 0 1 1 273.00399999933336 725.9999980000001 Z" opacity="1" class="highcharts-point"></path><path fill="#7cb5ec" d="M 273 726 A 4 4 0 1 1 273.00399999933336 725.9999980000001 Z" opacity="1" class="highcharts-point"></path><path fill="#7cb5ec" d="M 288 682 A 4 4 0 1 1 288.00399999933336 681.9999980000001 Z" opacity="1" class="highcharts-point"></path><path fill="#7cb5ec" d="M 288 682 A 4 4 0 1 1 288.00399999933336 681.9999980000001 Z" opacity="1" class="highcharts-point"></path><path fill="#7cb5ec" d="M 288 682 A 4 4 0 1 1 288.00399999933336 681.9999980000001 Z" opacity="1" class="highcharts-point"></path><path fill="#7cb5ec" d="M 288 682 A 4 4 0 1 1 288.00399999933336 681.9999980000001 Z" opacity="1" class="highcharts-point"></path><path fill="#7cb5ec" d="M 288 682 A 4 4 0 1 1 288.00399999933336 681.9999980000001 Z" opacity="1" class="highcharts-point"></path><path fill="#7cb5ec" d="M 295 722 A 4 4 0 1 1 295.00399999933336 721.9999980000001 Z" opacity="1" class="highcharts-point"></path><path fill="#7cb5ec" d="M 295 722 A 4 4 0 1 1 295.00399999933336 721.9999980000001 Z" opacity="1" class="highcharts-point"></path><path fill="#7cb5ec" d="M 295 722 A 4 4 0 1 1 295.00399999933336 721.9999980000001 Z" opacity="1" class="highcharts-point"></path><path fill="#7cb5ec" d="M 303 719 A 4 4 0 1 1 303.00399999933336 718.9999980000001 Z" opacity="1" class="highcharts-point"></path><path fill="#7cb5ec" d="M 303 719 A 4 4 0 1 1 303.00399999933336 718.9999980000001 Z" opacity="1" class="highcharts-point"></path><path fill="#7cb5ec" d="M 303 719 A 4 4 0 1 1 303.00399999933336 718.9999980000001 Z" opacity="1" class="highcharts-point"></path><path fill="#7cb5ec" d="M 303 719 A 4 4 0 1 1 303.00399999933336 718.9999980000001 Z" opacity="1" class="highcharts-point"></path><path fill="#7cb5ec" d="M 318 682 A 4 4 0 1 1 318.00399999933336 681.9999980000001 Z" opacity="1" class="highcharts-point"></path><path fill="#7cb5ec" d="M 318 682 A 4 4 0 1 1 318.00399999933336 681.9999980000001 Z" opacity="1" class="highcharts-point"></path><path fill="#7cb5ec" d="M 318 682 A 4 4 0 1 1 318.00399999933336 681.9999980000001 Z" opacity="1" class="highcharts-point"></path><path fill="#7cb5ec" d="M 318 722 A 4 4 0 1 1 318.00399999933336 721.9999980000001 Z" opacity="1" class="highcharts-point"></path><path fill="#7cb5ec" d="M 318 682 A 4 4 0 1 1 318.00399999933336 681.9999980000001 Z" opacity="1" class="highcharts-point"></path><path fill="#7cb5ec" d="M 318 682 A 4 4 0 1 1 318.00399999933336 681.9999980000001 Z" opacity="1" class="highcharts-point"></path><path fill="#7cb5ec" d="M 333 722 A 4 4 0 1 1 333.00399999933336 721.9999980000001 Z" opacity="1" class="highcharts-point"></path><path fill="#7cb5ec" d="M 333 722 A 4 4 0 1 1 333.00399999933336 721.9999980000001 Z" opacity="1" class="highcharts-point"></path><path fill="#7cb5ec" d="M 333 691 A 4 4 0 1 1 333.00399999933336 690.9999980000001 Z" opacity="1" class="highcharts-point"></path><path fill="#7cb5ec" d="M 348 682 A 4 4 0 1 1 348.00399999933336 681.9999980000001 Z" opacity="1" class="highcharts-point"></path><path fill="#7cb5ec" d="M 348 682 A 4 4 0 1 1 348.00399999933336 681.9999980000001 Z" opacity="1" class="highcharts-point"></path><path fill="#7cb5ec" d="M 348 682 A 4 4 0 1 1 348.00399999933336 681.9999980000001 Z" opacity="1" class="highcharts-point"></path><path fill="#7cb5ec" d="M 348 682 A 4 4 0 1 1 348.00399999933336 681.9999980000001 Z" opacity="1" class="highcharts-point"></path><path fill="#7cb5ec" d="M 363 726 A 4 4 0 1 1 363.00399999933336 725.9999980000001 Z" opacity="1" class="highcharts-point"></path><path fill="#7cb5ec" d="M 363 726 A 4 4 0 1 1 363.00399999933336 725.9999980000001 Z" opacity="1" class="highcharts-point"></path><path fill="#7cb5ec" d="M 370 589 A 4 4 0 1 1 370.00399999933336 588.9999980000001 Z" opacity="1" class="highcharts-point"></path><path fill="#7cb5ec" d="M 370 688 A 4 4 0 1 1 370.00399999933336 687.9999980000001 Z" opacity="1" class="highcharts-point"></path><path fill="#7cb5ec" d="M 370 589 A 4 4 0 1 1 370.00399999933336 588.9999980000001 Z" opacity="1" class="highcharts-point"></path><path fill="#7cb5ec" d="M 370 589 A 4 4 0 1 1 370.00399999933336 588.9999980000001 Z" opacity="1" class="highcharts-point"></path><path fill="#7cb5ec" d="M 370 589 A 4 4 0 1 1 370.00399999933336 588.9999980000001 Z" opacity="1" class="highcharts-point"></path><path fill="#7cb5ec" d="M 370 688 A 4 4 0 1 1 370.00399999933336 687.9999980000001 Z" opacity="1" class="highcharts-point"></path><path fill="#7cb5ec" d="M 370 589 A 4 4 0 1 1 370.00399999933336 588.9999980000001 Z" opacity="1" class="highcharts-point"></path><path fill="#7cb5ec" d="M 385 688 A 4 4 0 1 1 385.00399999933336 687.9999980000001 Z" opacity="1" class="highcharts-point"></path><path fill="#7cb5ec" d="M 385 688 A 4 4 0 1 1 385.00399999933336 687.9999980000001 Z" opacity="1" class="highcharts-point"></path><path fill="#7cb5ec" d="M 385 688 A 4 4 0 1 1 385.00399999933336 687.9999980000001 Z" opacity="1" class="highcharts-point"></path><path fill="#7cb5ec" d="M 385 688 A 4 4 0 1 1 385.00399999933336 687.9999980000001 Z" opacity="1" class="highcharts-point"></path><path fill="#7cb5ec" d="M 385 688 A 4 4 0 1 1 385.00399999933336 687.9999980000001 Z" opacity="1" class="highcharts-point"></path><path fill="#7cb5ec" d="M 408 719 A 4 4 0 1 1 408.00399999933336 718.9999980000001 Z" opacity="1" class="highcharts-point"></path><path fill="#7cb5ec" d="M 408 722 A 4 4 0 1 1 408.00399999933336 721.9999980000001 Z" opacity="1" class="highcharts-point"></path><path fill="#7cb5ec" d="M 415 844 A 4 4 0 1 1 415.00399999933336 843.9999980000001 Z" opacity="1" class="highcharts-point"></path><path fill="#7cb5ec" d="M 415 726 A 4 4 0 1 1 415.00399999933336 725.9999980000001 Z" opacity="1" class="highcharts-point"></path><path fill="#7cb5ec" d="M 415 844 A 4 4 0 1 1 415.00399999933336 843.9999980000001 Z" opacity="1" class="highcharts-point"></path><path fill="#7cb5ec" d="M 415 726 A 4 4 0 1 1 415.00399999933336 725.9999980000001 Z" opacity="1" class="highcharts-point"></path><path fill="#7cb5ec" d="M 415 844 A 4 4 0 1 1 415.00399999933336 843.9999980000001 Z" opacity="1" class="highcharts-point"></path><path fill="#7cb5ec" d="M 415 719 A 4 4 0 1 1 415.00399999933336 718.9999980000001 Z" opacity="1" class="highcharts-point"></path><path fill="#7cb5ec" d="M 423 757 A 4 4 0 1 1 423.00399999933336 756.9999980000001 Z" opacity="1" class="highcharts-point"></path><path fill="#7cb5ec" d="M 423 722 A 4 4 0 1 1 423.00399999933336 721.9999980000001 Z" opacity="1" class="highcharts-point"></path><path fill="#7cb5ec" d="M 423 757 A 4 4 0 1 1 423.00399999933336 756.9999980000001 Z" opacity="1" class="highcharts-point"></path><path fill="#7cb5ec" d="M 423 757 A 4 4 0 1 1 423.00399999933336 756.9999980000001 Z" opacity="1" class="highcharts-point"></path><path fill="#7cb5ec" d="M 423 757 A 4 4 0 1 1 423.00399999933336 756.9999980000001 Z" opacity="1" class="highcharts-point"></path><path fill="#7cb5ec" d="M 453 610 A 4 4 0 1 1 453.00399999933336 609.9999980000001 Z" opacity="1" class="highcharts-point"></path><path fill="#7cb5ec" d="M 483 685 A 4 4 0 1 1 483.00399999933336 684.9999980000001 Z" opacity="1" class="highcharts-point"></path><path fill="#7cb5ec" d="M 483 685 A 4 4 0 1 1 483.00399999933336 684.9999980000001 Z" opacity="1" class="highcharts-point"></path><path fill="#7cb5ec" d="M 483 685 A 4 4 0 1 1 483.00399999933336 684.9999980000001 Z" opacity="1" class="highcharts-point"></path><path fill="#7cb5ec" d="M 483 638 A 4 4 0 1 1 483.00399999933336 637.9999980000001 Z" opacity="1" class="highcharts-point"></path><path fill="#7cb5ec" d="M 483 638 A 4 4 0 1 1 483.00399999933336 637.9999980000001 Z" opacity="1" class="highcharts-point"></path><path fill="#7cb5ec" d="M 483 685 A 4 4 0 1 1 483.00399999933336 684.9999980000001 Z" opacity="1" class="highcharts-point"></path><path fill="#7cb5ec" d="M 483 638 A 4 4 0 1 1 483.00399999933336 637.9999980000001 Z" opacity="1" class="highcharts-point"></path><path fill="#7cb5ec" d="M 483 638 A 4 4 0 1 1 483.00399999933336 637.9999980000001 Z" opacity="1" class="highcharts-point"></path><path fill="#7cb5ec" d="M 490 657 A 4 4 0 1 1 490.00399999933336 656.9999980000001 Z" opacity="1" class="highcharts-point"></path><path fill="#7cb5ec" d="M 490 726 A 4 4 0 1 1 490.00399999933336 725.9999980000001 Z" opacity="1" class="highcharts-point"></path><path fill="#7cb5ec" d="M 490 726 A 4 4 0 1 1 490.00399999933336 725.9999980000001 Z" opacity="1" class="highcharts-point"></path><path fill="#7cb5ec" d="M 490 657 A 4 4 0 1 1 490.00399999933336 656.9999980000001 Z" opacity="1" class="highcharts-point"></path><path fill="#7cb5ec" d="M 498 757 A 4 4 0 1 1 498.00399999933336 756.9999980000001 Z" opacity="1" class="highcharts-point"></path><path fill="#7cb5ec" d="M 498 757 A 4 4 0 1 1 498.00399999933336 756.9999980000001 Z" opacity="1" class="highcharts-point"></path><path fill="#7cb5ec" d="M 513 623 A 4 4 0 1 1 513.0039999993334 622.9999980000001 Z" opacity="1" class="highcharts-point"></path><path fill="#7cb5ec" d="M 513 623 A 4 4 0 1 1 513.0039999993334 622.9999980000001 Z" opacity="1" class="highcharts-point"></path><path fill="#7cb5ec" d="M 513 623 A 4 4 0 1 1 513.0039999993334 622.9999980000001 Z" opacity="1" class="highcharts-point"></path><path fill="#7cb5ec" d="M 513 623 A 4 4 0 1 1 513.0039999993334 622.9999980000001 Z" opacity="1" class="highcharts-point"></path><path fill="#7cb5ec" d="M 513 623 A 4 4 0 1 1 513.0039999993334 622.9999980000001 Z" opacity="1" class="highcharts-point"></path><path fill="#7cb5ec" d="M 513 623 A 4 4 0 1 1 513.0039999993334 622.9999980000001 Z" opacity="1" class="highcharts-point"></path><path fill="#7cb5ec" d="M 520 638 A 4 4 0 1 1 520.0039999993334 637.9999980000001 Z" opacity="1" class="highcharts-point"></path><path fill="#7cb5ec" d="M 528 719 A 4 4 0 1 1 528.0039999993334 718.9999980000001 Z" opacity="1" class="highcharts-point"></path><path fill="#7cb5ec" d="M 528 607 A 4 4 0 1 1 528.0039999993334 606.9999980000001 Z" opacity="1" class="highcharts-point"></path><path fill="#7cb5ec" d="M 528 607 A 4 4 0 1 1 528.0039999993334 606.9999980000001 Z" opacity="1" class="highcharts-point"></path><path fill="#7cb5ec" d="M 528 719 A 4 4 0 1 1 528.0039999993334 718.9999980000001 Z" opacity="1" class="highcharts-point"></path><path fill="#7cb5ec" d="M 528 607 A 4 4 0 1 1 528.0039999993334 606.9999980000001 Z" opacity="1" class="highcharts-point"></path><path fill="#7cb5ec" d="M 528 607 A 4 4 0 1 1 528.0039999993334 606.9999980000001 Z" opacity="1" class="highcharts-point"></path><path fill="#7cb5ec" d="M 528 719 A 4 4 0 1 1 528.0039999993334 718.9999980000001 Z" opacity="1" class="highcharts-point"></path><path fill="#7cb5ec" d="M 528 607 A 4 4 0 1 1 528.0039999993334 606.9999980000001 Z" opacity="1" class="highcharts-point"></path><path fill="#7cb5ec" d="M 528 607 A 4 4 0 1 1 528.0039999993334 606.9999980000001 Z" opacity="1" class="highcharts-point"></path><path fill="#7cb5ec" d="M 558 626 A 4 4 0 1 1 558.0039999993334 625.9999980000001 Z" opacity="1" class="highcharts-point"></path><path fill="#7cb5ec" d="M 565 551 A 4 4 0 1 1 565.0039999993334 550.9999980000001 Z" opacity="1" class="highcharts-point"></path><path fill="#7cb5ec" d="M 565 551 A 4 4 0 1 1 565.0039999993334 550.9999980000001 Z" opacity="1" class="highcharts-point"></path><path fill="#7cb5ec" d="M 565 551 A 4 4 0 1 1 565.0039999993334 550.9999980000001 Z" opacity="1" class="highcharts-point"></path><path fill="#7cb5ec" d="M 580 492 A 4 4 0 1 1 580.0039999993334 491.9999980000002 Z" opacity="1" class="highcharts-point"></path><path fill="#7cb5ec" d="M 580 492 A 4 4 0 1 1 580.0039999993334 491.9999980000002 Z" opacity="1" class="highcharts-point"></path><path fill="#7cb5ec" d="M 580 492 A 4 4 0 1 1 580.0039999993334 491.9999980000002 Z" opacity="1" class="highcharts-point"></path><path fill="#7cb5ec" d="M 580 492 A 4 4 0 1 1 580.0039999993334 491.9999980000002 Z" opacity="1" class="highcharts-point"></path><path fill="#7cb5ec" d="M 663 523 A 4 4 0 1 1 663.0039999993334 522.9999980000001 Z" opacity="1" class="highcharts-point"></path><path fill="#7cb5ec" d="M 670 813 A 4 4 0 1 1 670.0039999993334 812.9999980000001 Z" opacity="1" class="highcharts-point"></path><path fill="#7cb5ec" d="M 708 654 A 4 4 0 1 1 708.0039999993334 653.9999980000001 Z" opacity="1" class="highcharts-point"></path><path fill="#7cb5ec" d="M 723 645 A 4 4 0 1 1 723.0039999993334 644.9999980000001 Z" opacity="1" class="highcharts-point"></path><path fill="#7cb5ec" d="M 730 592 A 4 4 0 1 1 730.0039999993334 591.9999980000001 Z" opacity="1" class="highcharts-point"></path><path fill="#7cb5ec" d="M 745 576 A 4 4 0 1 1 745.0039999993334 575.9999980000001 Z" opacity="1" class="highcharts-point"></path><path fill="#7cb5ec" d="M 745 576 A 4 4 0 1 1 745.0039999993334 575.9999980000001 Z" opacity="1" class="highcharts-point"></path><path fill="#7cb5ec" d="M 745 576 A 4 4 0 1 1 745.0039999993334 575.9999980000001 Z" opacity="1" class="highcharts-point"></path><path fill="#7cb5ec" d="M 745 576 A 4 4 0 1 1 745.0039999993334 575.9999980000001 Z" opacity="1" class="highcharts-point"></path><path fill="#7cb5ec" d="M 745 576 A 4 4 0 1 1 745.0039999993334 575.9999980000001 Z" opacity="1" class="highcharts-point"></path><path fill="#7cb5ec" d="M 798 498 A 4 4 0 1 1 798.0039999993334 497.9999980000002 Z" opacity="1" class="highcharts-point"></path><path fill="#7cb5ec" d="M 798 498 A 4 4 0 1 1 798.0039999993334 497.9999980000002 Z" opacity="1" class="highcharts-point"></path><path fill="#7cb5ec" d="M 798 498 A 4 4 0 1 1 798.0039999993334 497.9999980000002 Z" opacity="1" class="highcharts-point"></path><path fill="#7cb5ec" d="M 813 589 A 4 4 0 1 1 813.0039999993334 588.9999980000001 Z" opacity="1" class="highcharts-point"></path><path fill="#7cb5ec" d="M 820 334 A 4 4 0 1 1 820.0039999993334 333.9999980000002 Z" opacity="1" class="highcharts-point"></path><path fill="#7cb5ec" d="M 820 334 A 4 4 0 1 1 820.0039999993334 333.9999980000002 Z" opacity="1" class="highcharts-point"></path><path fill="#7cb5ec" d="M 828 530 A 4 4 0 1 1 828.0039999993334 529.9999980000001 Z" opacity="1" class="highcharts-point"></path><path fill="#7cb5ec" d="M 828 561 A 4 4 0 1 1 828.0039999993334 560.9999980000001 Z" opacity="1" class="highcharts-point"></path><path fill="#7cb5ec" d="M 858 654 A 4 4 0 1 1 858.0039999993334 653.9999980000001 Z" opacity="1" class="highcharts-point"></path><path fill="#7cb5ec" d="M 858 623 A 4 4 0 1 1 858.0039999993334 622.9999980000001 Z" opacity="1" class="highcharts-point"></path><path fill="#7cb5ec" d="M 858 685 A 4 4 0 1 1 858.0039999993334 684.9999980000001 Z" opacity="1" class="highcharts-point"></path><path fill="#7cb5ec" d="M 858 498 A 4 4 0 1 1 858.0039999993334 497.9999980000002 Z" opacity="1" class="highcharts-point"></path><path fill="#7cb5ec" d="M 858 685 A 4 4 0 1 1 858.0039999993334 684.9999980000001 Z" opacity="1" class="highcharts-point"></path><path fill="#7cb5ec" d="M 858 498 A 4 4 0 1 1 858.0039999993334 497.9999980000002 Z" opacity="1" class="highcharts-point"></path><path fill="#7cb5ec" d="M 865 530 A 4 4 0 1 1 865.0039999993334 529.9999980000001 Z" opacity="1" class="highcharts-point"></path><path fill="#7cb5ec" d="M 865 530 A 4 4 0 1 1 865.0039999993334 529.9999980000001 Z" opacity="1" class="highcharts-point"></path><path fill="#7cb5ec" d="M 873 657 A 4 4 0 1 1 873.0039999993334 656.9999980000001 Z" opacity="1" class="highcharts-point"></path><path fill="#7cb5ec" d="M 873 657 A 4 4 0 1 1 873.0039999993334 656.9999980000001 Z" opacity="1" class="highcharts-point"></path><path fill="#7cb5ec" d="M 970 626 A 4 4 0 1 1 970.0039999993334 625.9999980000001 Z" opacity="1" class="highcharts-point"></path><path fill="#7cb5ec" d="M 978 259 A 4 4 0 1 1 978.0039999993334 258.9999980000002 Z" opacity="1" class="highcharts-point"></path><path fill="#7cb5ec" d="M 978 259 A 4 4 0 1 1 978.0039999993334 258.9999980000002 Z" opacity="1" class="highcharts-point"></path><path fill="#7cb5ec" d="M 1023 411 A 4 4 0 1 1 1023.0039999993334 410.9999980000002 Z" opacity="1" class="highcharts-point"></path><path fill="#7cb5ec" d="M 1023 411 A 4 4 0 1 1 1023.0039999993334 410.9999980000002 Z" opacity="1" class="highcharts-point"></path><path fill="#7cb5ec" d="M 1023 411 A 4 4 0 1 1 1023.0039999993334 410.9999980000002 Z" opacity="1" class="highcharts-point"></path><path fill="#7cb5ec" d="M 1038 116 A 4 4 0 1 1 1038.0039999993332 115.99999800000016 Z" opacity="1" class="highcharts-point"></path><path fill="#7cb5ec" d="M 1038 104 A 4 4 0 1 1 1038.0039999993332 103.99999800000016 Z" opacity="1" class="highcharts-point"></path><path fill="#7cb5ec" d="M 1158 498 A 4 4 0 1 1 1158.0039999993332 497.9999980000002 Z" opacity="1" class="highcharts-point"></path><path fill="#7cb5ec" d="M 1210 458 A 4 4 0 1 1 1210.0039999993332 457.9999980000002 Z" opacity="1" class="highcharts-point"></path><path fill="#7cb5ec" d="M 1210 458 A 4 4 0 1 1 1210.0039999993332 457.9999980000002 Z" opacity="1" class="highcharts-point"></path><path fill="#7cb5ec" d="M 1210 458 A 4 4 0 1 1 1210.0039999993332 457.9999980000002 Z" opacity="1" class="highcharts-point"></path><path fill="#7cb5ec" d="M 1623 48 A 4 4 0 1 1 1623.0039999993332 47.99999800000017 Z" opacity="1" class="highcharts-point"></path><path fill="#7cb5ec" d="M 1818 430 A 4 4 0 1 1 1818.0039999993332 429.9999980000002 Z" opacity="1" class="highcharts-point"></path></g></g><text x="960" text-anchor="middle" class="highcharts-title" data-z-index="4" style="color:#333333;font-size:14;font-weight:normal;fill:#333333;" y="21"><tspan>ExampleSet</tspan></text><text x="960" text-anchor="middle" class="highcharts-subtitle" data-z-index="4" style="color:#666666;fill:#666666;" y="45"></text><g class="highcharts-legend" data-z-index="7" transform="translate(906,1036)"><rect fill="none" class="highcharts-legend-box" rx="0" ry="0" x="0" y="0" width="108" height="29" visibility="visible"></rect><g data-z-index="1"><g><g class="highcharts-legend-item highcharts-scatter-series highcharts-color-undefined highcharts-series-0" data-z-index="1" transform="translate(8,3)"><path fill="none" d="M 0 11 L 16 11" class="highcharts-graph" stroke-dasharray="none"></path><path fill="#7cb5ec" d="M 8 15 A 4 4 0 1 1 8.003999999333336 14.999998000000167 Z" class="highcharts-point" opacity="1"></path><text x="21" style="color:#333333;cursor:pointer;font-size:12px;font-weight:bold;fill:#333333;" text-anchor="start" data-z-index="2" y="15"><tspan>Engine-size</tspan></text></g></g></g></g><g class="highcharts-axis-labels highcharts-xaxis-labels" data-z-index="7"><text x="107" style="color:#666666;cursor:default;font-size:11px;font-weight:normal;fill:#666666;" text-anchor="middle" transform="translate(0,0)" y="998" opacity="1">50</text><text x="182" style="color:#666666;cursor:default;font-size:11px;font-weight:normal;fill:#666666;" text-anchor="middle" transform="translate(0,0)" y="998" opacity="1">60</text><text x="257" style="color:#666666;cursor:default;font-size:11px;font-weight:normal;fill:#666666;" text-anchor="middle" transform="translate(0,0)" y="998" opacity="1">70</text><text x="332" style="color:#666666;cursor:default;font-size:11px;font-weight:normal;fill:#666666;" text-anchor="middle" transform="translate(0,0)" y="998" opacity="1">80</text><text x="407" style="color:#666666;cursor:default;font-size:11px;font-weight:normal;fill:#666666;" text-anchor="middle" transform="translate(0,0)" y="998" opacity="1">90</text><text x="482" style="color:#666666;cursor:default;font-size:11px;font-weight:normal;fill:#666666;" text-anchor="middle" transform="translate(0,0)" y="998" opacity="1">100</text><text x="557" style="color:#666666;cursor:default;font-size:11px;font-weight:normal;fill:#666666;" text-anchor="middle" transform="translate(0,0)" y="998" opacity="1">110</text><text x="632" style="color:#666666;cursor:default;font-size:11px;font-weight:normal;fill:#666666;" text-anchor="middle" transform="translate(0,0)" y="998" opacity="1">120</text><text x="707" style="color:#666666;cursor:default;font-size:11px;font-weight:normal;fill:#666666;" text-anchor="middle" transform="translate(0,0)" y="998" opacity="1">130</text><text x="782" style="color:#666666;cursor:default;font-size:11px;font-weight:normal;fill:#666666;" text-anchor="middle" transform="translate(0,0)" y="998" opacity="1">140</text><text x="857" style="color:#666666;cursor:default;font-size:11px;font-weight:normal;fill:#666666;" text-anchor="middle" transform="translate(0,0)" y="998" opacity="1">150</text><text x="932" style="color:#666666;cursor:default;font-size:11px;font-weight:normal;fill:#666666;" text-anchor="middle" transform="translate(0,0)" y="998" opacity="1">160</text><text x="1007" style="color:#666666;cursor:default;font-size:11px;font-weight:normal;fill:#666666;" text-anchor="middle" transform="translate(0,0)" y="998" opacity="1">170</text><text x="1082" style="color:#666666;cursor:default;font-size:11px;font-weight:normal;fill:#666666;" text-anchor="middle" transform="translate(0,0)" y="998" opacity="1">180</text><text x="1157" style="color:#666666;cursor:default;font-size:11px;font-weight:normal;fill:#666666;" text-anchor="middle" transform="translate(0,0)" y="998" opacity="1">190</text><text x="1232" style="color:#666666;cursor:default;font-size:11px;font-weight:normal;fill:#666666;" text-anchor="middle" transform="translate(0,0)" y="998" opacity="1">200</text><text x="1307" style="color:#666666;cursor:default;font-size:11px;font-weight:normal;fill:#666666;" text-anchor="middle" transform="translate(0,0)" y="998" opacity="1">210</text><text x="1382" style="color:#666666;cursor:default;font-size:11px;font-weight:normal;fill:#666666;" text-anchor="middle" transform="translate(0,0)" y="998" opacity="1">220</text><text x="1457" style="color:#666666;cursor:default;font-size:11px;font-weight:normal;fill:#666666;" text-anchor="middle" transform="translate(0,0)" y="998" opacity="1">230</text><text x="1532" style="color:#666666;cursor:default;font-size:11px;font-weight:normal;fill:#666666;" text-anchor="middle" transform="translate(0,0)" y="998" opacity="1">240</text><text x="1607" style="color:#666666;cursor:default;font-size:11px;font-weight:normal;fill:#666666;" text-anchor="middle" transform="translate(0,0)" y="998" opacity="1">250</text><text x="1682" style="color:#666666;cursor:default;font-size:11px;font-weight:normal;fill:#666666;" text-anchor="middle" transform="translate(0,0)" y="998" opacity="1">260</text><text x="1757" style="color:#666666;cursor:default;font-size:11px;font-weight:normal;fill:#666666;" text-anchor="middle" transform="translate(0,0)" y="998" opacity="1">270</text><text x="1832" style="color:#666666;cursor:default;font-size:11px;font-weight:normal;fill:#666666;" text-anchor="middle" transform="translate(0,0)" y="998" opacity="1">280</text><text x="1899.54443359375" style="color:#666666;cursor:default;font-size:11px;font-weight:normal;fill:#666666;" text-anchor="middle" transform="translate(0,0)" y="998" opacity="1">290</text></g><g class="highcharts-axis-labels highcharts-yaxis-labels" data-z-index="7"><text x="59" style="color:#666666;cursor:default;font-size:11px;font-weight:normal;fill:#666666;" text-anchor="end" transform="translate(0,0)" y="983" opacity="1">40</text><text x="59" style="color:#666666;cursor:default;font-size:11px;font-weight:normal;fill:#666666;" text-anchor="end" transform="translate(0,0)" y="921" opacity="1">60</text><text x="59" style="color:#666666;cursor:default;font-size:11px;font-weight:normal;fill:#666666;" text-anchor="end" transform="translate(0,0)" y="859" opacity="1">80</text><text x="59" style="color:#666666;cursor:default;font-size:11px;font-weight:normal;fill:#666666;" text-anchor="end" transform="translate(0,0)" y="796" opacity="1">100</text><text x="59" style="color:#666666;cursor:default;font-size:11px;font-weight:normal;fill:#666666;" text-anchor="end" transform="translate(0,0)" y="734" opacity="1">120</text><text x="59" style="color:#666666;cursor:default;font-size:11px;font-weight:normal;fill:#666666;" text-anchor="end" transform="translate(0,0)" y="672" opacity="1">140</text><text x="59" style="color:#666666;cursor:default;font-size:11px;font-weight:normal;fill:#666666;" text-anchor="end" transform="translate(0,0)" y="610" opacity="1">160</text><text x="59" style="color:#666666;cursor:default;font-size:11px;font-weight:normal;fill:#666666;" text-anchor="end" transform="translate(0,0)" y="548" opacity="1">180</text><text x="59" style="color:#666666;cursor:default;font-size:11px;font-weight:normal;fill:#666666;" text-anchor="end" transform="translate(0,0)" y="485" opacity="1">200</text><text x="59" style="color:#666666;cursor:default;font-size:11px;font-weight:normal;fill:#666666;" text-anchor="end" transform="translate(0,0)" y="423" opacity="1">220</text><text x="59" style="color:#666666;cursor:default;font-size:11px;font-weight:normal;fill:#666666;" text-anchor="end" transform="translate(0,0)" y="361" opacity="1">240</text><text x="59" style="color:#666666;cursor:default;font-size:11px;font-weight:normal;fill:#666666;" text-anchor="end" transform="translate(0,0)" y="299" opacity="1">260</text><text x="59" style="color:#666666;cursor:default;font-size:11px;font-weight:normal;fill:#666666;" text-anchor="end" transform="translate(0,0)" y="237" opacity="1">280</text><text x="59" style="color:#666666;cursor:default;font-size:11px;font-weight:normal;fill:#666666;" text-anchor="end" transform="translate(0,0)" y="174" opacity="1">300</text><text x="59" style="color:#666666;cursor:default;font-size:11px;font-weight:normal;fill:#666666;" text-anchor="end" transform="translate(0,0)" y="112" opacity="1">320</text><text x="59" style="color:#666666;cursor:default;font-size:11px;font-weight:normal;fill:#666666;" text-anchor="end" transform="translate(0,0)" y="50" opacity="1">340</text></g></svg>