<svg xmlns:xlink="http://www.w3.org/1999/xlink" version="1.1" class="highcharts-root" style="font-family:&quot;Lucida Grande&quot;, &quot;Lucida Sans Unicode&quot;, Arial, Helvetica, sans-serif;font-size:12px;" xmlns="http://www.w3.org/2000/svg" width="1920" height="1080" viewBox="0 0 1920 1080"><desc>Created with Highcharts 7.1.3</desc><defs><clipPath id="highcharts-lk3wlv3-8-"><rect x="0" y="0" width="1826" height="974" fill="none"></rect></clipPath></defs><rect fill="#ffffff" class="highcharts-background" x="0" y="0" width="1920" height="1080" rx="0" ry="0"></rect><rect fill="none" class="highcharts-plot-background" x="84" y="46" width="1826" height="974"></rect><g class="highcharts-pane-group" data-z-index="0"></g><g class="highcharts-grid highcharts-xaxis-grid" data-z-index="1"><path fill="none" stroke-dasharray="none" data-z-index="1" class="highcharts-grid-line" d="M 996.5 46 L 996.5 1020" opacity="1"></path><path fill="none" stroke-dasharray="none" data-z-index="1" class="highcharts-grid-line" d="M 1909.5 46 L 1909.5 1020" opacity="1"></path><path fill="none" stroke-dasharray="none" data-z-index="1" class="highcharts-grid-line" d="M 83.5 46 L 83.5 1020" opacity="1"></path></g><g class="highcharts-grid highcharts-yaxis-grid" data-z-index="1"><path fill="none" stroke="#e6e6e6" stroke-width="1" stroke-dasharray="none" data-z-index="1" class="highcharts-grid-line" d="M 84 1020.5 L 1910 1020.5" opacity="1"></path><path fill="none" stroke="#e6e6e6" stroke-width="1" stroke-dasharray="none" data-z-index="1" class="highcharts-grid-line" d="M 84 966.5 L 1910 966.5" opacity="1"></path><path fill="none" stroke="#e6e6e6" stroke-width="1" stroke-dasharray="none" data-z-index="1" class="highcharts-grid-line" d="M 84 912.5 L 1910 912.5" opacity="1"></path><path fill="none" stroke="#e6e6e6" stroke-width="1" stroke-dasharray="none" data-z-index="1" class="highcharts-grid-line" d="M 84 858.5 L 1910 858.5" opacity="1"></path><path fill="none" stroke="#e6e6e6" stroke-width="1" stroke-dasharray="none" data-z-index="1" class="highcharts-grid-line" d="M 84 804.5 L 1910 804.5" opacity="1"></path><path fill="none" stroke="#e6e6e6" stroke-width="1" stroke-dasharray="none" data-z-index="1" class="highcharts-grid-line" d="M 84 749.5 L 1910 749.5" opacity="1"></path><path fill="none" stroke="#e6e6e6" stroke-width="1" stroke-dasharray="none" data-z-index="1" class="highcharts-grid-line" d="M 84 695.5 L 1910 695.5" opacity="1"></path><path fill="none" stroke="#e6e6e6" stroke-width="1" stroke-dasharray="none" data-z-index="1" class="highcharts-grid-line" d="M 84 641.5 L 1910 641.5" opacity="1"></path><path fill="none" stroke="#e6e6e6" stroke-width="1" stroke-dasharray="none" data-z-index="1" class="highcharts-grid-line" d="M 84 587.5 L 1910 587.5" opacity="1"></path><path fill="none" stroke="#e6e6e6" stroke-width="1" stroke-dasharray="none" data-z-index="1" class="highcharts-grid-line" d="M 84 533.5 L 1910 533.5" opacity="1"></path><path fill="none" stroke="#e6e6e6" stroke-width="1" stroke-dasharray="none" data-z-index="1" class="highcharts-grid-line" d="M 84 479.5 L 1910 479.5" opacity="1"></path><path fill="none" stroke="#e6e6e6" stroke-width="1" stroke-dasharray="none" data-z-index="1" class="highcharts-grid-line" d="M 84 425.5 L 1910 425.5" opacity="1"></path><path fill="none" stroke="#e6e6e6" stroke-width="1" stroke-dasharray="none" data-z-index="1" class="highcharts-grid-line" d="M 84 371.5 L 1910 371.5" opacity="1"></path><path fill="none" stroke="#e6e6e6" stroke-width="1" stroke-dasharray="none" data-z-index="1" class="highcharts-grid-line" d="M 84 317.5 L 1910 317.5" opacity="1"></path><path fill="none" stroke="#e6e6e6" stroke-width="1" stroke-dasharray="none" data-z-index="1" class="highcharts-grid-line" d="M 84 262.5 L 1910 262.5" opacity="1"></path><path fill="none" stroke="#e6e6e6" stroke-width="1" stroke-dasharray="none" data-z-index="1" class="highcharts-grid-line" d="M 84 208.5 L 1910 208.5" opacity="1"></path><path fill="none" stroke="#e6e6e6" stroke-width="1" stroke-dasharray="none" data-z-index="1" class="highcharts-grid-line" d="M 84 154.5 L 1910 154.5" opacity="1"></path><path fill="none" stroke="#e6e6e6" stroke-width="1" stroke-dasharray="none" data-z-index="1" class="highcharts-grid-line" d="M 84 100.5 L 1910 100.5" opacity="1"></path><path fill="none" stroke="#e6e6e6" stroke-width="1" stroke-dasharray="none" data-z-index="1" class="highcharts-grid-line" d="M 84 45.5 L 1910 45.5" opacity="1"></path></g><rect fill="none" class="highcharts-plot-border" data-z-index="1" x="84" y="46" width="1826" height="974"></rect><g class="highcharts-axis highcharts-xaxis" data-z-index="2"><text x="997" data-z-index="7" text-anchor="middle" transform="translate(0,0)" class="highcharts-axis-title" style="color:#666666;font-weight:normal;fill:#666666;" y="1059"><tspan>Fuel-type</tspan></text><path fill="none" class="highcharts-axis-line" stroke="#ccd6eb" stroke-width="1" data-z-index="7" d="M 84 1020.5 L 1910 1020.5"></path></g><g class="highcharts-axis highcharts-yaxis" data-z-index="2"><text x="25.65283203125" data-z-index="7" text-anchor="middle" transform="translate(0,0) rotate(270 25.65283203125 533)" class="highcharts-axis-title" style="color:#666666;font-weight:normal;fill:#666666;" y="533"><tspan>Price</tspan></text><path fill="none" class="highcharts-axis-line" data-z-index="7" d="M 84 46 L 84 1020"></path></g><g class="highcharts-series-group" data-z-index="3"><g data-z-index="0.1" class="highcharts-series highcharts-series-0 highcharts-boxplot-series " transform="translate(84,46) scale(1 1)" clip-path="url(#highcharts-lk3wlv3-8-)"><g class="highcharts-point"><path fill="none" class="highcharts-boxplot-stem" stroke="#7cb5ec" stroke-width="2" d="M 456 681 L 456 45 M 456 863 L 456 917"></path><path fill="none" class="highcharts-boxplot-whisker" stroke="#7cb5ec" stroke-width="2" d="M 346 45 L 566 45 M 346 917 L 566 917"></path><path fill="#ffffff" class="highcharts-boxplot-box" stroke="#7cb5ec" stroke-width="2" d="M 236 681 L 236 863 L 675 863 L 675 681 L 236 681 z"></path><path fill="none" class="highcharts-boxplot-median" stroke="#7cb5ec" stroke-width="2" d="M 236 812 L 675 812"></path></g><g class="highcharts-point"><path fill="none" class="highcharts-boxplot-stem" stroke="#7cb5ec" stroke-width="2" d="M 1369 564 L 1369 344 M 1369 846 L 1369 874"></path><path fill="none" class="highcharts-boxplot-whisker" stroke="#7cb5ec" stroke-width="2" d="M 1259 344 L 1479 344 M 1259 874 L 1479 874"></path><path fill="#ffffff" class="highcharts-boxplot-box" stroke="#7cb5ec" stroke-width="2" d="M 1149 564 L 1149 846 L 1588 846 L 1588 564 L 1149 564 z"></path><path fill="none" class="highcharts-boxplot-median" stroke="#7cb5ec" stroke-width="2" d="M 1149 728 L 1588 728"></path></g></g><g data-z-index="0.1" class="highcharts-markers highcharts-series-0 highcharts-boxplot-series " transform="translate(84,46) scale(1 1)" clip-path="none"></g></g><text x="960" text-anchor="middle" class="highcharts-title" data-z-index="4" style="color:#333333;font-size:14;font-weight:normal;fill:#333333;" y="21"><tspan>Read CSV</tspan></text><text x="960" text-anchor="middle" class="highcharts-subtitle" data-z-index="4" style="color:#666666;fill:#666666;" y="45"></text><g class="highcharts-legend" data-z-index="7"><rect fill="none" class="highcharts-legend-box" rx="0" ry="0" x="0" y="0" width="8" height="8" visibility="hidden"></rect><g data-z-index="1"><g></g></g></g><g class="highcharts-axis-labels highcharts-xaxis-labels" data-z-index="7"><text x="540.5" style="color:#666666;cursor:default;font-size:11px;font-weight:normal;fill:#666666;" text-anchor="middle" transform="translate(0,0)" y="1039" opacity="1">gas</text><text x="1453.5" style="color:#666666;cursor:default;font-size:11px;font-weight:normal;fill:#666666;" text-anchor="middle" transform="translate(0,0)" y="1039" opacity="1">diesel</text></g><g class="highcharts-axis-labels highcharts-yaxis-labels" data-z-index="7"><text x="69" style="color:#666666;cursor:default;font-size:11px;font-weight:normal;fill:#666666;" text-anchor="end" transform="translate(0,0)" y="1024" opacity="1">2.5k</text><text x="69" style="color:#666666;cursor:default;font-size:11px;font-weight:normal;fill:#666666;" text-anchor="end" transform="translate(0,0)" y="970" opacity="1">5k</text><text x="69" style="color:#666666;cursor:default;font-size:11px;font-weight:normal;fill:#666666;" text-anchor="end" transform="translate(0,0)" y="916" opacity="1">7.5k</text><text x="69" style="color:#666666;cursor:default;font-size:11px;font-weight:normal;fill:#666666;" text-anchor="end" transform="translate(0,0)" y="862" opacity="1">10k</text><text x="69" style="color:#666666;cursor:default;font-size:11px;font-weight:normal;fill:#666666;" text-anchor="end" transform="translate(0,0)" y="808" opacity="1">12.5k</text><text x="69" style="color:#666666;cursor:default;font-size:11px;font-weight:normal;fill:#666666;" text-anchor="end" transform="translate(0,0)" y="753" opacity="1">15k</text><text x="69" style="color:#666666;cursor:default;font-size:11px;font-weight:normal;fill:#666666;" text-anchor="end" transform="translate(0,0)" y="699" opacity="1">17.5k</text><text x="69" style="color:#666666;cursor:default;font-size:11px;font-weight:normal;fill:#666666;" text-anchor="end" transform="translate(0,0)" y="645" opacity="1">20k</text><text x="69" style="color:#666666;cursor:default;font-size:11px;font-weight:normal;fill:#666666;" text-anchor="end" transform="translate(0,0)" y="591" opacity="1">22.5k</text><text x="69" style="color:#666666;cursor:default;font-size:11px;font-weight:normal;fill:#666666;" text-anchor="end" transform="translate(0,0)" y="537" opacity="1">25k</text><text x="69" style="color:#666666;cursor:default;font-size:11px;font-weight:normal;fill:#666666;" text-anchor="end" transform="translate(0,0)" y="483" opacity="1">27.5k</text><text x="69" style="color:#666666;cursor:default;font-size:11px;font-weight:normal;fill:#666666;" text-anchor="end" transform="translate(0,0)" y="429" opacity="1">30k</text><text x="69" style="color:#666666;cursor:default;font-size:11px;font-weight:normal;fill:#666666;" text-anchor="end" transform="translate(0,0)" y="375" opacity="1">32.5k</text><text x="69" style="color:#666666;cursor:default;font-size:11px;font-weight:normal;fill:#666666;" text-anchor="end" transform="translate(0,0)" y="321" opacity="1">35k</text><text x="69" style="color:#666666;cursor:default;font-size:11px;font-weight:normal;fill:#666666;" text-anchor="end" transform="translate(0,0)" y="266" opacity="1">37.5k</text><text x="69" style="color:#666666;cursor:default;font-size:11px;font-weight:normal;fill:#666666;" text-anchor="end" transform="translate(0,0)" y="212" opacity="1">40k</text><text x="69" style="color:#666666;cursor:default;font-size:11px;font-weight:normal;fill:#666666;" text-anchor="end" transform="translate(0,0)" y="158" opacity="1">42.5k</text><text x="69" style="color:#666666;cursor:default;font-size:11px;font-weight:normal;fill:#666666;" text-anchor="end" transform="translate(0,0)" y="104" opacity="1">45k</text><text x="69" style="color:#666666;cursor:default;font-size:11px;font-weight:normal;fill:#666666;" text-anchor="end" transform="translate(0,0)" y="50" opacity="1">47.5k</text></g></svg>